<?xml version="1.0" standalone="no"?>
<!DOCTYPE svg PUBLIC "-//W3C//DTD SVG 20010904//EN"
 "http://www.w3.org/TR/2001/REC-SVG-20010904/DTD/svg10.dtd">
<svg version="1.0" xmlns="http://www.w3.org/2000/svg"
 width="673.000000pt" height="434.000000pt" viewBox="0 0 673.000000 434.000000"
 preserveAspectRatio="xMidYMid meet">

<g transform="translate(0.000000,434.000000) scale(0.100000,-0.100000)"
fill="#000000" stroke="none">
<path d="M4070 3889 c-568 -66 -987 -187 -1425 -413 -537 -277 -941 -633
-1296 -1139 l-78 -112 -320 4 -321 3 0 -29 0 -30 122 -6 c66 -4 201 -7 300 -7
98 0 178 -2 178 -4 0 -3 -26 -49 -57 -103 -276 -477 -479 -1146 -533 -1753
-15 -169 -14 -192 7 -188 15 3 19 20 25 113 26 415 140 916 299 1317 85 215
242 530 297 598 l17 21 1860 -15 c1023 -8 2007 -18 2188 -20 l327 -5 0 34 0
35 -152 0 c-258 -1 -4183 33 -4186 35 -5 4 105 162 184 264 330 423 752 763
1239 997 471 226 990 354 1533 380 110 5 142 10 142 20 0 11 -28 14 -137 13
-76 -1 -172 -5 -213 -10z"/>
<path d="M6207 3640 c-91 -23 -173 -89 -217 -176 -21 -42 -25 -63 -25 -139 0
-76 4 -97 25 -139 102 -199 362 -244 517 -89 58 58 87 124 91 210 5 88 -13
149 -66 218 -68 91 -215 142 -325 115z m190 -35 c58 -24 116 -78 148 -136 42
-78 47 -185 13 -261 -55 -119 -149 -182 -272 -182 -39 0 -88 5 -109 13 -58 20
-129 82 -162 142 -27 49 -30 63 -30 144 0 81 3 95 30 144 42 75 112 129 200
152 41 11 137 2 182 -16z"/>
<path d="M6200 3305 c0 -113 2 -135 15 -135 12 0 15 13 15 60 l0 60 39 0 c44
0 49 -5 72 -70 9 -25 23 -46 32 -48 15 -3 15 0 0 45 -9 26 -22 55 -30 64 -12
15 -11 20 11 42 33 33 33 61 1 92 -21 22 -33 25 -90 25 l-65 0 0 -135z m143
83 c8 -12 7 -24 -1 -42 -10 -23 -18 -26 -62 -26 l-50 0 0 46 0 45 51 -3 c35
-2 55 -8 62 -20z"/>
<path d="M3223 1910 c21 -4 43 -12 50 -19 8 -8 13 -74 14 -219 2 -194 1 -204
-12 -161 -26 82 -105 131 -187 115 -80 -15 -136 -78 -163 -181 -21 -81 -21
-319 0 -400 30 -116 97 -175 197 -175 76 0 114 29 150 115 l17 40 0 -72 1 -73
108 1 c88 1 101 3 72 11 -69 19 -65 -12 -68 533 l-3 495 -107 -1 c-76 -1 -96
-3 -69 -9z m-27 -315 c63 -26 93 -138 94 -343 0 -179 -31 -311 -83 -347 -33
-23 -90 -19 -120 9 -40 37 -58 114 -64 271 -9 238 22 381 89 410 42 18 42 18
84 0z"/>
<path d="M1996 1888 c-36 -51 -8 -118 49 -118 40 0 55 20 55 73 0 62 -71 92
-104 45z"/>
<path d="M1164 1850 c22 -4 45 -16 53 -26 19 -26 19 -882 0 -908 -8 -10 -31
-22 -53 -26 -24 -5 24 -8 126 -8 98 0 150 3 127 8 -21 4 -43 12 -50 19 -8 8
-13 66 -15 176 l-3 164 41 62 c23 33 46 57 50 52 4 -4 54 -93 110 -198 57
-104 114 -204 127 -222 30 -40 88 -63 156 -63 l52 1 -26 16 c-15 9 -40 37 -56
62 -35 54 -269 461 -285 495 -9 21 -2 36 62 128 153 216 172 240 214 258 l41
19 -115 -1 c-102 0 -109 -1 -65 -10 62 -12 72 -20 57 -53 -11 -23 -333 -488
-353 -509 -5 -6 -9 98 -9 255 0 296 0 297 66 309 24 5 -24 8 -126 8 -102 0
-150 -3 -126 -8z"/>
<path d="M2447 1616 c-64 -18 -99 -45 -116 -89 -16 -43 -1 -93 30 -102 61 -17
56 -21 61 56 8 110 57 157 131 125 46 -19 57 -56 57 -202 l0 -111 -77 -7
c-144 -12 -203 -40 -235 -113 -16 -37 -20 -60 -16 -119 8 -121 64 -184 163
-184 67 0 110 28 144 95 l26 50 3 -68 3 -67 92 0 c88 1 90 1 60 15 -19 8 -34
23 -37 37 -3 13 -7 145 -8 293 -3 267 -3 270 -28 314 -15 26 -39 50 -62 62
-49 25 -132 32 -191 15z m161 -468 c-3 -113 -7 -139 -26 -175 -27 -51 -56 -73
-99 -73 -62 0 -88 54 -87 180 1 141 50 195 182 199 l34 1 -4 -132z"/>
<path d="M3768 1617 c-136 -39 -198 -177 -185 -417 11 -217 95 -329 247 -330
127 0 202 55 240 177 31 98 31 299 0 396 -23 76 -75 142 -126 163 -48 20 -125
25 -176 11z m134 -19 c30 -15 58 -84 70 -171 14 -109 5 -375 -16 -444 -42
-136 -183 -139 -232 -5 -13 36 -18 90 -22 228 -6 268 16 366 91 399 32 14 75
12 109 -7z"/>
<path d="M4522 1620 c-43 -10 -80 -44 -103 -95 l-19 -40 0 63 0 62 -102 -1
c-57 -1 -89 -4 -73 -6 55 -8 55 -10 55 -359 0 -245 -3 -324 -12 -332 -7 -6
-29 -15 -48 -20 -27 -8 0 -10 120 -10 122 0 147 2 117 10 -20 6 -42 19 -48 29
-6 13 -9 115 -7 287 3 254 4 269 26 313 25 51 56 73 103 71 39 -1 66 -25 79
-71 6 -20 10 -168 10 -338 l0 -303 103 1 c72 0 94 3 74 9 -58 18 -57 10 -57
294 0 286 8 342 54 385 31 30 97 32 126 6 36 -33 42 -82 47 -392 l5 -303 97 1
c85 0 92 2 64 12 -17 7 -35 16 -40 20 -4 5 -10 135 -13 290 -5 276 -6 283 -30
332 -31 62 -75 89 -145 89 -68 0 -113 -27 -146 -88 l-27 -49 -11 35 c-15 44
-58 86 -102 98 -38 11 -50 11 -97 0z"/>
<path d="M1927 1603 c62 -8 63 -14 63 -358 0 -233 -3 -315 -12 -328 -7 -9 -31
-21 -53 -26 -30 -7 0 -9 120 -9 121 0 151 2 125 10 -19 5 -41 17 -47 26 -10
12 -13 99 -13 354 l0 338 -107 -2 c-60 0 -93 -3 -76 -5z"/>
</g>
</svg>
